<svg width="20" height="29" viewBox="0 0 20 29" fill="none" xmlns="http://www.w3.org/2000/svg">
<path d="M8.74998 29V25.6667H5.41665V23.1667H8.74998V18.9167C6.4722 18.6111 4.58331 17.5874 3.08331 15.8456C1.58331 14.1037 0.833313 12.0858 0.833313 9.79166C0.833313 7.2523 1.72915 5.09661 3.52081 3.32461C5.31248 1.55264 7.4722 0.666656 9.99998 0.666656C12.5278 0.666656 14.6875 1.55264 16.4791 3.32461C18.2708 5.09661 19.1666 7.2523 19.1666 9.79166C19.1666 12.0858 18.4166 14.1037 16.9166 15.8456C15.4166 17.5874 13.5278 18.6111 11.25 18.9167V23.1667H14.5833V25.6667H11.25V29H8.74998ZM9.99156 16.5C11.8305 16.5 13.4028 15.85 14.7083 14.5501C16.0139 13.2501 16.6666 11.6807 16.6666 9.84174C16.6666 8.0028 16.0167 6.43055 14.7167 5.12499C13.4168 3.81943 11.8473 3.16666 10.0084 3.16666C8.16945 3.16666 6.5972 3.81663 5.29165 5.11657C3.98609 6.41652 3.33331 7.98596 3.33331 9.82491C3.33331 11.6639 3.98329 13.2361 5.28323 14.5417C6.58317 15.8472 8.15262 16.5 9.99156 16.5Z" fill="#F15858"/>
</svg>
