<svg width="18" height="20" viewBox="0 0 18 20" fill="none" xmlns="http://www.w3.org/2000/svg">
<rect x="1" y="6.66667" width="16" height="12" fill="#F9D75E"/>
<path d="M11.9204 16.5C11.2401 16.5 10.6667 16.2651 10.2 15.7954C9.73333 15.3257 9.5 14.7507 9.5 14.0704C9.5 13.3901 9.73486 12.8167 10.2046 12.35C10.6743 11.8833 11.2493 11.65 11.9296 11.65C12.6099 11.65 13.1833 11.8849 13.65 12.3546C14.1167 12.8243 14.35 13.3993 14.35 14.0796C14.35 14.7599 14.1151 15.3333 13.6454 15.8C13.1757 16.2667 12.6007 16.5 11.9204 16.5ZM1.5 20C1.1 20 0.75 19.85 0.45 19.55C0.15 19.25 0 18.9 0 18.5V3C0 2.6 0.15 2.25 0.45 1.95C0.75 1.65 1.1 1.5 1.5 1.5H3.125V0H4.75V1.5H13.25V0H14.875V1.5H16.5C16.9 1.5 17.25 1.65 17.55 1.95C17.85 2.25 18 2.6 18 3V18.5C18 18.9 17.85 19.25 17.55 19.55C17.25 19.85 16.9 20 16.5 20H1.5ZM1.5 18.5H16.5V7.75H1.5V18.5Z" fill="#6F3C01"/>
</svg>
