<svg width="22" height="22" viewBox="0 0 22 22" fill="none" xmlns="http://www.w3.org/2000/svg">
<path d="M5.49998 12.8563H12.6729V11.4813H5.49998V12.8563ZM5.49998 9.87709H16.5V8.50209H5.49998V9.87709ZM5.49998 6.89792H16.5V5.52292H5.49998V6.89792ZM1.83331 20.1667V3.20834C1.83331 2.85695 1.97081 2.53993 2.24581 2.25729C2.52081 1.97466 2.84165 1.83334 3.20831 1.83334H18.7916C19.143 1.83334 19.46 1.97466 19.7427 2.25729C20.0253 2.53993 20.1666 2.85695 20.1666 3.20834V15.125C20.1666 15.4764 20.0253 15.7934 19.7427 16.076C19.46 16.3587 19.143 16.5 18.7916 16.5H5.49998L1.83331 20.1667Z" fill="#6F3C01"/>
</svg>
