<svg width="18" height="18" viewBox="0 0 18 18" fill="none" xmlns="http://www.w3.org/2000/svg">
<path d="M11.8 12.875L12.85 11.825L9.75 8.72758V4.275H8.25V9.325L11.8 12.875ZM9 18C7.75 18 6.57917 17.7625 5.4875 17.2875C4.39583 16.8125 3.44583 16.1708 2.6375 15.3625C1.82917 14.5542 1.1875 13.6042 0.7125 12.5125C0.2375 11.4208 0 10.25 0 9C0 7.75 0.2375 6.57917 0.7125 5.4875C1.1875 4.39583 1.82917 3.44583 2.6375 2.6375C3.44583 1.82917 4.39583 1.1875 5.4875 0.7125C6.57917 0.2375 7.75 0 9 0C10.25 0 11.4208 0.2375 12.5125 0.7125C13.6042 1.1875 14.5542 1.82917 15.3625 2.6375C16.1708 3.44583 16.8125 4.39583 17.2875 5.4875C17.7625 6.57917 18 7.75 18 9C18 10.25 17.7625 11.4208 17.2875 12.5125C16.8125 13.6042 16.1708 14.5542 15.3625 15.3625C14.5542 16.1708 13.6042 16.8125 12.5125 17.2875C11.4208 17.7625 10.25 18 9 18Z" fill="#6F3C01"/>
<line x1="8.5" y1="4" x2="8.5" y2="10" stroke="#F9D75E"/>
<line x1="8.35335" y1="9.64624" x2="11.891" y2="13.1797" stroke="#F9D75E"/>
</svg>
