<svg width="28" height="28" viewBox="0 0 28 28" fill="none" xmlns="http://www.w3.org/2000/svg">
<path d="M27.3334 0.666656V9.83332H24.8334V4.95832L17.1667 12.5833C17.75 13.3889 18.2014 14.2708 18.5209 15.2292C18.8403 16.1875 19 17.1667 19 18.1667C19 20.7222 18.1111 22.8889 16.3334 24.6667C14.5556 26.4444 12.3889 27.3333 9.83335 27.3333C7.2778 27.3333 5.11113 26.4444 3.33335 24.6667C1.55558 22.8889 0.666687 20.7222 0.666687 18.1667C0.666687 15.6111 1.55558 13.4444 3.33335 11.6667C5.11113 9.88888 7.2778 8.99999 9.83335 8.99999C10.8334 8.99999 11.8056 9.15971 12.75 9.47916C13.6945 9.7986 14.5695 10.25 15.375 10.8333L23.0417 3.16666H18.1667V0.666656H27.3334ZM9.84177 11.5C8.00283 11.5 6.43058 12.15 5.12502 13.4499C3.81946 14.7498 3.16669 16.3193 3.16669 18.1582C3.16669 19.9972 3.81666 21.5694 5.1166 22.875C6.41655 24.1805 7.98599 24.8333 9.82494 24.8333C11.6639 24.8333 13.2361 24.1834 14.5417 22.8834C15.8472 21.5835 16.5 20.014 16.5 18.1751C16.5 16.3361 15.85 14.7639 14.5501 13.4583C13.2502 12.1528 11.6807 11.5 9.84177 11.5Z" fill="#29ABD5"/>
</svg>
