<svg width="17" height="21" viewBox="0 0 17 21" fill="none" xmlns="http://www.w3.org/2000/svg">
<path d="M8.50002 10.2396C9.00349 10.2396 9.43318 10.0616 9.78908 9.70572C10.145 9.34982 10.3229 8.92013 10.3229 8.41666C10.3229 7.91319 10.145 7.4835 9.78908 7.1276C9.43318 6.7717 9.00349 6.59374 8.50002 6.59374C7.99655 6.59374 7.56686 6.7717 7.21096 7.1276C6.85505 7.4835 6.6771 7.91319 6.6771 8.41666C6.6771 8.92013 6.85505 9.34982 7.21096 9.70572C7.56686 10.0616 7.99655 10.2396 8.50002 10.2396ZM8.50002 20.9167C5.70488 18.5382 3.61721 16.329 2.237 14.2891C0.856791 12.2491 0.166687 10.3611 0.166687 8.62499C0.166687 6.02083 1.00436 3.94618 2.67971 2.40104C4.35505 0.855898 6.29516 0.0833282 8.50002 0.0833282C10.7049 0.0833282 12.645 0.855898 14.3203 2.40104C15.9957 3.94618 16.8334 6.02083 16.8334 8.62499C16.8334 10.3611 16.1432 12.2491 14.763 14.2891C13.3828 16.329 11.2952 18.5382 8.50002 20.9167Z" fill="#6F3C01"/>
<circle cx="8.5" cy="8.5" r="2.5" fill="white" stroke="#F9D75E" stroke-width="2"/>
</svg>
