<svg width="24" height="23" viewBox="0 0 24 23" fill="none" xmlns="http://www.w3.org/2000/svg">
<path d="M0 20.1719V17.724C0 17.1163 0.15625 16.5651 0.46875 16.0703C0.78125 15.5755 1.21528 15.2066 1.77083 14.9635C3.03819 14.408 4.17969 14.0087 5.19531 13.7656C6.21094 13.5226 7.25695 13.401 8.33333 13.401C9.40972 13.401 10.4514 13.5226 11.4583 13.7656C12.4653 14.0087 13.6024 14.408 14.8698 14.9635C15.4253 15.2066 15.8637 15.5755 16.1849 16.0703C16.5061 16.5651 16.6667 17.1163 16.6667 17.724V20.1719H0ZM18.2292 20.1719V17.724C18.2292 16.6302 17.9514 15.7318 17.3958 15.0286C16.8403 14.3255 16.1111 13.7569 15.2083 13.3229C16.4063 13.4618 17.5347 13.6658 18.5938 13.9349C19.6528 14.204 20.5122 14.5122 21.1719 14.8594C21.7448 15.1892 22.1962 15.5972 22.526 16.0833C22.8559 16.5694 23.0208 17.1163 23.0208 17.724V20.1719H18.2292ZM8.33333 11.8125C7.1875 11.8125 6.25 11.4479 5.52083 10.7187C4.79167 9.98958 4.42708 9.05208 4.42708 7.90625C4.42708 6.76042 4.79167 5.82292 5.52083 5.09375C6.25 4.36458 7.1875 4 8.33333 4C9.47917 4 10.4167 4.36458 11.1458 5.09375C11.875 5.82292 12.2396 6.76042 12.2396 7.90625C12.2396 9.05208 11.875 9.98958 11.1458 10.7187C10.4167 11.4479 9.47917 11.8125 8.33333 11.8125ZM17.7083 7.90625C17.7083 9.05208 17.3438 9.98958 16.6146 10.7187C15.8854 11.4479 14.9479 11.8125 13.8021 11.8125C13.6111 11.8125 13.3984 11.7995 13.1641 11.7734C12.9297 11.7474 12.717 11.6997 12.526 11.6302C12.9427 11.1962 13.2596 10.6623 13.4766 10.0286C13.6936 9.39497 13.8021 8.6875 13.8021 7.90625C13.8021 7.125 13.6936 6.4349 13.4766 5.83594C13.2596 5.23698 12.9427 4.68576 12.526 4.18229C12.717 4.13021 12.9297 4.08681 13.1641 4.05208C13.3984 4.01736 13.6111 4 13.8021 4C14.9479 4 15.8854 4.36458 16.6146 5.09375C17.3438 5.82292 17.7083 6.76042 17.7083 7.90625Z" fill="#6F3C01"/>
<circle cx="8.51044" cy="7.8385" r="2.5" fill="#F9D75E"/>
</svg>
